<svg xmlns="http://www.w3.org/2000/svg" version="1.1" xmlns:xlink="http://www.w3.org/1999/xlink" width="28" height="25"><svg width="28" height="25" viewBox="0 0 28 25" fill="none" xmlns="http://www.w3.org/2000/svg">
<path d="M24.9489 16.3712L27.8077 15.2976V8.05352L24.9489 6.97991C23.1165 2.98027 19.0191 0.19323 14.2545 0.19323C9.48988 0.19323 5.39243 2.98027 3.56005 6.97991L0.701294 8.05352V15.2967L3.56005 16.3703C4.23122 17.8353 5.20728 19.1366 6.40774 20.1994V20.9723H4.27952L2.87379 25.0922H25.6352L24.2294 20.9723H22.0338V20.2595C23.2654 19.1869 24.2647 17.8629 24.9489 16.3712ZM11.1311 3.69896H17.3779V5.23789H11.1311V3.69896ZM21.3163 15.5786L19.161 17.6903H9.29769L7.12519 15.5618V8.66574L9.29467 6.54022H19.1942L21.3153 8.61842V15.5786H21.3163Z" fill="#CC6237"></path>
</svg><style>@media (prefers-color-scheme: light) { :root { filter: none; } }
@media (prefers-color-scheme: dark) { :root { filter: none; } }
</style></svg>